<svg xmlns="http://www.w3.org/2000/svg" viewBox="0 0 200 200" width="100%" height="100%">
        <rect width="200" height="200" fill="#fffbeb"/>
        <!-- 玻璃杯 -->
        <path d="M 65 40 L 75 140 Q 77 155 100 155 Q 123 155 125 140 L 135 40 Z" fill="#ffffff" stroke="#e9d8a6" stroke-width="3" opacity="0.8"/>
        <!-- 檸檬黃色康普茶液體與氣泡 -->
        <path d="M 67 65 L 75 140 Q 77 152 100 152 Q 123 152 125 140 L 133 65 Z" fill="#f9bec7" opacity="0.2"/>
        <path d="M 67 65 L 75 140 Q 77 152 100 152 Q 123 152 125 140 L 133 65 Z" fill="#ee9b00" opacity="0.75"/>
        <!-- 氣泡 -->
        <circle cx="85" cy="110" r="3" fill="#ffffff" opacity="0.8"/>
        <circle cx="115" cy="95" r="4" fill="#ffffff" opacity="0.8"/>
        <circle cx="100" cy="120" r="2.5" fill="#ffffff" opacity="0.8"/>
        <!-- 檸檬片 -->
        <circle cx="100" cy="65" r="18" fill="#ffd166" stroke="#ee9b00" stroke-width="2"/>
        <text x="100" y="122" font-family="'Outfit', sans-serif" font-size="9" font-weight="bold" fill="#ffffff" text-anchor="middle" stroke="#ca6702" stroke-width="0.5">TEAZEN</text>
    </svg>